<svg width="116" height="116" viewBox="0 0 116 116" fill="none" xmlns="http://www.w3.org/2000/svg">
<path fill-rule="evenodd" clip-rule="evenodd" d="M22.9686 11.3311C24.4384 10.2291 25.959 9.19767 27.5247 8.2402L8.24171 27.5247C9.19921 25.959 10.2291 24.438 11.33 22.9702L22.9686 11.3311ZM48.4866 0.471063C49.0575 0.37743 49.631 0.293394 50.2046 0.21783L0.219757 50.203C0.294947 49.6295 0.379357 49.0571 0.472617 48.4851L48.4866 0.471063ZM63.6098 0.00585938C64.0492 0.0493844 64.489 0.0975657 64.9284 0.151533L0.15351 64.9268C0.099069 64.4874 0.0509378 64.0476 0.00585938 63.6078L63.6098 0.00585938ZM75.7271 2.54286C76.0945 2.66157 76.4603 2.78494 76.8265 2.91175L2.91175 76.8245C2.78687 76.4603 2.66312 76.0929 2.54446 75.7256L75.7271 2.54286ZM85.9509 6.97671C86.2654 7.15015 86.5772 7.32782 86.8871 7.50671L7.50864 86.8856C7.32937 86.5753 7.15175 86.2638 6.97864 85.9489L85.9509 6.97671ZM94.6821 12.9018C94.95 13.1231 95.2166 13.3444 95.4799 13.5702L13.5717 95.4799C13.3459 95.2148 13.1246 94.9484 12.9034 94.6805L94.6821 12.9018ZM102.076 20.1649C102.301 20.4301 102.524 20.6964 102.743 20.9647L20.9662 102.743C20.6969 102.522 20.4301 102.3 20.1668 102.075L102.076 20.1649ZM108.14 28.7593C108.319 29.0696 108.495 29.3825 108.668 29.6959L29.6974 108.668C29.3829 108.495 29.0711 108.319 28.7608 108.14L108.14 28.7593ZM112.735 38.8203C112.861 39.1845 112.983 39.5503 113.102 39.9177L39.9196 113.102C39.5523 112.983 39.1861 112.86 38.8218 112.733L112.735 38.8203ZM115.495 50.718C115.549 51.1578 115.597 51.5972 115.641 52.037L52.0385 115.641C51.5988 115.595 51.1594 115.547 50.7195 115.493L115.495 50.718ZM115.429 65.4403C115.353 66.0154 115.267 66.5893 115.176 67.1597L67.1613 115.174C66.5908 115.267 66.0173 115.352 65.4422 115.427L115.429 65.4403ZM107.405 88.1217C106.449 89.6862 105.42 91.2053 104.32 92.6719L92.675 104.317C91.2068 105.417 89.6877 106.447 88.1217 107.405L107.405 88.1217Z" fill="white"/>
</svg>
