<svg width="130" height="131" viewBox="0 0 130 131" fill="none" xmlns="http://www.w3.org/2000/svg">
<path fill-rule="evenodd" clip-rule="evenodd" d="M25.752 13.1805C27.3999 11.9449 29.1048 10.7884 30.8603 9.71487L9.23999 31.3368C10.3136 29.5814 11.4683 27.876 12.7026 26.2303L25.752 13.1805ZM54.3631 1.00401C55.0031 0.899031 55.6461 0.804809 56.2893 0.720086L0.245684 56.7641C0.329988 56.121 0.424629 55.4793 0.529193 54.8379L54.3631 1.00401ZM71.3193 0.482422C71.812 0.531223 72.3051 0.585244 72.7978 0.645752L0.171407 73.2726C0.110367 72.7799 0.0564018 72.2868 0.00585938 71.7937L71.3193 0.482422ZM84.9055 3.32694C85.3174 3.46004 85.7275 3.59836 86.1381 3.74054L3.26397 86.6124C3.12396 86.2041 2.98522 85.7922 2.85217 85.3803L84.9055 3.32694ZM96.3685 8.29823C96.7211 8.49268 97.0707 8.69189 97.4182 8.89246L8.41807 97.893C8.21707 97.5451 8.01792 97.1959 7.82383 96.8428L96.3685 8.29823ZM106.158 14.9415C106.458 15.1897 106.757 15.4377 107.053 15.6909L15.2161 107.529C14.9628 107.232 14.7148 106.933 14.4667 106.633L106.158 14.9415ZM114.448 23.085C114.7 23.3823 114.95 23.6809 115.196 23.9817L23.5069 115.673C23.2049 115.424 22.9057 115.176 22.6106 114.923L114.448 23.085ZM121.247 32.7211C121.448 33.069 121.645 33.4199 121.839 33.7712L33.2964 122.316C32.9438 122.121 32.5941 121.924 32.2463 121.723L121.247 32.7211ZM126.399 44.0017C126.541 44.41 126.677 44.8202 126.811 45.232L44.7576 127.288C44.3458 127.154 43.9352 127.016 43.5268 126.874L126.399 44.0017ZM129.493 57.3415C129.554 57.8346 129.608 58.3273 129.657 58.8204L58.3455 130.134C57.8524 130.083 57.3598 130.029 56.8666 129.968L129.493 57.3415ZM129.419 73.8483C129.335 74.4931 129.238 75.1366 129.136 75.7762L75.3014 129.61C74.6618 129.715 74.0187 129.81 73.3739 129.894L129.419 73.8483ZM120.423 99.279C119.351 101.033 118.198 102.736 116.964 104.381L103.908 117.437C102.261 118.671 100.558 119.826 98.8024 120.899L120.423 99.279Z" fill="white"/>
</svg>
